# xmcd
#
# Track frame offsets: 
#        150
#        55110
#        82975
#        106298
#        133913
#
# Disc length: 2117 seconds
#
# Revision: 3
# Processed by: cddbd v1.5.2PL0 Copyright (c) Steve Scherf et al.
# Submitted via: ExactAudioCopy v0.99pb4
#
DISCID=3a084305
DTITLE=Rollins, Sonny - Tenor Madness
DYEAR=1956
DGENRE=Jazz - Hard Bop
TTITLE0=Tenor Madness
TTITLE1=When Your Lover Has Gone
TTITLE2=Paul's Pal
TTITLE3=My Reverie
TTITLE4=The Most Beautiful Girl In The World
EXTD=
EXTT0=
EXTT1=
EXTT2=
EXTT3=
EXTT4=
PLAYORDER=
